<svg width="20" height="25" viewBox="0 0 20 25" fill="none" xmlns="http://www.w3.org/2000/svg">
<path d="M2.5 25C1.8125 25 1.22396 24.7552 0.734375 24.2656C0.244792 23.776 0 23.1875 0 22.5V2.5C0 1.8125 0.244792 1.22396 0.734375 0.734375C1.22396 0.244792 1.8125 0 2.5 0H12.5L20 7.5V22.5C20 23.1875 19.7552 23.776 19.2656 24.2656C18.776 24.7552 18.1875 25 17.5 25H2.5ZM8.75 21.25H11.25V20H12.5C12.8542 20 13.151 19.8802 13.3906 19.6406C13.6302 19.401 13.75 19.1042 13.75 18.75V15C13.75 14.6458 13.6302 14.349 13.3906 14.1094C13.151 13.8698 12.8542 13.75 12.5 13.75H8.75V12.5H13.75V10H11.25V8.75H8.75V10H7.5C7.14583 10 6.84896 10.1198 6.60938 10.3594C6.36979 10.599 6.25 10.8958 6.25 11.25V15C6.25 15.3542 6.36979 15.651 6.60938 15.8906C6.84896 16.1302 7.14583 16.25 7.5 16.25H11.25V17.5H6.25V20H8.75V21.25ZM11.4688 7.5H16.4688L11.4688 2.5V7.5Z" fill="#1B6D24"/>
</svg>
